<?xml version="1.0" encoding="utf-8"?>
<!-- Generator: Adobe Illustrator 25.4.1, SVG Export Plug-In . SVG Version: 6.00 Build 0)  -->
<svg version="1.0" id="katman_1" xmlns="http://www.w3.org/2000/svg" xmlns:xlink="http://www.w3.org/1999/xlink" x="0px" y="0px"
	 viewBox="0 0 1024 768" style="enable-background:new 0 0 1024 768;" xml:space="preserve">
<style type="text/css">
	.st0{clip-path:url(#SVGID_00000112609399889565282300000002617383902436248983_);}
	.st1{fill:#25F4EE;}
	.st2{fill:#FE2C55;}
</style>
<symbol  id="svg-header-logo" viewBox="-59.1 -21 118.3 42">
	<g>
		<defs>
			<rect id="SVGID_1_" x="-59.1" y="-21" width="118" height="42"/>
		</defs>
		<clipPath id="SVGID_00000029046309824172574640000012078666097507828106_">
			<use xlink:href="#SVGID_1_"  style="overflow:visible;"/>
		</clipPath>
		<g style="clip-path:url(#SVGID_00000029046309824172574640000012078666097507828106_);">
			<path class="st1" d="M-49.3-4.2v-1.1c-0.4-0.1-0.8-0.1-1.2-0.1c-4.8,0-8.7,3.9-8.7,8.7c0,2.9,1.5,5.6,3.7,7.1
				c-1.5-1.6-2.3-3.6-2.3-5.9C-57.8-0.2-54-4-49.3-4.2z"/>
			<path class="st1" d="M-49,8.5c2.1,0,3.9-1.7,4-3.8l0-19h3.5c-0.1-0.4-0.1-0.8-0.1-1.2h-4.7l0,19c-0.1,2.1-1.8,3.8-4,3.8
				c-0.7,0-1.3-0.2-1.8-0.5C-51.6,7.9-50.4,8.5-49,8.5z"/>
			<path class="st1" d="M-35.1-7.8v-1.1c-1.3,0-2.5-0.4-3.6-1.1C-37.8-8.9-36.6-8.1-35.1-7.8z"/>
			<path class="st2" d="M-38.7-10c-1-1.2-1.6-2.7-1.6-4.3h-1.3C-41.3-12.5-40.2-10.9-38.7-10z"/>
			<path class="st2" d="M-50.4-0.6c-2.2,0-4,1.8-4,4c0,1.5,0.9,2.9,2.1,3.5C-52.7,6.2-53,5.4-53,4.5c0-2.2,1.8-4,4-4
				c0.4,0,0.8,0.1,1.2,0.2v-4.8c-0.4-0.1-0.8-0.1-1.2-0.1c-0.1,0-0.1,0-0.2,0v3.7C-49.6-0.6-50-0.6-50.4-0.6z"/>
			<path class="st2" d="M-35.1-7.8v3.7c-2.5,0-4.7-0.8-6.6-2.1v9.6c0,4.8-3.9,8.7-8.7,8.7c-1.9,0-3.6-0.6-5-1.6
				c1.6,1.7,3.9,2.8,6.4,2.8c4.8,0,8.7-3.9,8.7-8.7v-9.6c1.9,1.3,4.1,2.1,6.6,2.1v-4.7C-34.2-7.7-34.7-7.7-35.1-7.8z"/>
			<path d="M-41.7,3.3v-9.6c1.9,1.3,4.1,2.1,6.6,2.1v-3.7c-1.4-0.3-2.7-1.1-3.6-2.1c-1.5-1-2.5-2.5-2.9-4.3h-3.5l0,19
				c-0.1,2.1-1.8,3.8-4,3.8c-1.3,0-2.5-0.7-3.2-1.7c-1.3-0.7-2.1-2-2.1-3.5c0-2.2,1.8-4,4-4c0.4,0,0.8,0.1,1.2,0.2v-3.7
				c-4.7,0.1-8.5,4-8.5,8.7c0,2.3,0.9,4.4,2.3,5.9c1.4,1,3.1,1.6,5,1.6C-45.6,12.1-41.7,8.1-41.7,3.3z"/>
			<path d="M-29.1-7.8h14.8l-1.4,4.2h-3.8v15.6h-4.8V-3.6l-4.8,0L-29.1-7.8z"/>
			<path d="M9.9-7.8H25l-1.4,4.2h-4.2v15.6h-4.8V-3.6l-4.8,0L9.9-7.8z"/>
			<path d="M-13.4-1.5h4.7v13.6h-4.7L-13.4-1.5z"/>
			<path d="M-6.8-7.9h4.7v9.3l4.7-4.6h5.6L2.3,2.5L9,12.1H3.8l-4.4-6.6l-1.4,1.4v5.2h-4.7L-6.8-7.9L-6.8-7.9z"/>
			<path d="M43.4-7.9h4.7v9.3l4.7-4.6h5.6l-5.9,5.8l6.6,9.5h-5.2l-4.4-6.6l-1.4,1.4v5.2h-4.7V-7.9z"/>
			<path d="M-11-3c1.3,0,2.4-1.1,2.4-2.4c0-1.3-1.1-2.4-2.4-2.4c-1.3,0-2.4,1.1-2.4,2.4C-13.4-4.1-12.4-3-11-3z"/>
			<path class="st1" d="M24.4,3.9c0-4.3,3.3-7.8,7.5-8.1c-0.2,0-0.5,0-0.7,0c-4.5,0-8.1,3.6-8.1,8.1c0,4.5,3.6,8.1,8.1,8.1
				c0.2,0,0.5,0,0.7,0C27.7,11.7,24.4,8.2,24.4,3.9z"/>
			<path class="st2" d="M33.7-4.2c-0.2,0-0.5,0-0.7,0c4.2,0.3,7.5,3.8,7.5,8.1c0,4.3-3.3,7.8-7.5,8.1c0.2,0,0.5,0,0.7,0
				c4.5,0,8.1-3.6,8.1-8.1C41.8-0.5,38.2-4.2,33.7-4.2z"/>
			<path d="M32.4,7.9c-2.2,0-3.9-1.8-3.9-3.9c0-2.2,1.8-3.9,3.9-3.9s3.9,1.8,3.9,3.9C36.4,6.1,34.6,7.9,32.4,7.9z M32.4-4.2
				c-4.5,0-8.1,3.6-8.1,8.1c0,4.5,3.6,8.1,8.1,8.1c4.5,0,8.1-3.6,8.1-8.1C40.6-0.5,36.9-4.2,32.4-4.2z"/>
		</g>
	</g>
</symbol>
<use xlink:href="#svg-header-logo"  width="118.3" height="42" x="-59.1" y="-21" transform="matrix(7.3043 0 0 7.3043 491.9297 389.2256)" style="overflow:visible;"/>
</svg>
